<!-- Generated by GitHub Copilot, style aligned with cube_f8_f8架构.svg -->
<svg height="1296" xmlns:ed="urn:edrawmax" viewBox="0 0 1353 1296" xmlns:ev="http://www.w3.org/2001/xml-events" width="1353" xmlns:xlink="http://www.w3.org/1999/xlink" xmlns="http://www.w3.org/2000/svg">
  <defs>
    <marker markerWidth="10" ed:arrow="4" refY="4" markerUnits="userSpaceOnUse" refX="7" orient="auto" id="edrawArrow_end_4_1_#191919" markerHeight="10">
      <path d="M1.0,1.0L7.0,4.0L1.0,7.0L1.0,1.0" stroke-width="1" stroke-linecap="round" stroke="#191919" fill="#191919"/>
    </marker>
    <style><![CDATA[
      .box { fill:#ffffff; stroke:#101843; stroke-width:1; }
      .key { fill:#ffff00; stroke:#101843; stroke-width:1; }
      .lane { fill:#ffd8d7; stroke:#101843; stroke-width:1; stroke-dasharray:6,4; }
      .frame { fill:none; stroke:#323232; stroke-width:1; stroke-dasharray:11,5; }
      .section { fill:none; stroke:#ff0000; stroke-width:2.66667; stroke-dasharray:16,10.6667; }
      .txt { fill:#000000; font-family:微软雅黑,PingFang SC,Microsoft YaHei,Arial; font-weight:bold; }
      .txt10 { font-size:10px; }
      .txt11 { font-size:11px; }
      .txt12 { font-size:12px; }
      .txt14 { font-size:14px; }
      .txt16 { font-size:16px; }
      .txt24 { font-size:24px; }
      .red { fill:#ff0000; font-family:微软雅黑,PingFang SC,Microsoft YaHei,Arial; font-weight:bold; }
      .blue { fill:#467dfe; font-family:微软雅黑,PingFang SC,Microsoft YaHei,Arial; font-weight:bold; }
      .graytxt { fill:#454545; font-family:微软雅黑,PingFang SC,Microsoft YaHei,Arial; font-weight:bold; }
    ]]></style>
  </defs>
  <g ed:name="页-1" id="page1" transform="translate(5.500000,5.500000)">
    <rect x="0" y="0" width="1343" height="1286" fill="#ffffff"/>

    <text class="red txt24" x="300" y="38">Q6权重 * Q6对数量化激活 cube胞元（4步长最优版）</text>
    <text class="red txt24" x="390" y="98">特征在左</text>
    <text class="blue txt24" x="1120" y="98">参数在右</text>

    <rect class="frame" x="492" y="24" width="638" height="870"/>
    <line class="section" x1="502" y1="236" x2="1119" y2="236"/>
    <line class="section" x1="502" y1="662" x2="1119" y2="662"/>
    <line class="section" x1="502" y1="858" x2="1119" y2="858"/>

    <text class="red txt16" x="724" y="220">逐元素通道内计算</text>
    <text class="red txt16" x="706" y="646">块末 BF16 scale-late</text>
    <text class="red txt16" x="760" y="842">四路独立 psum</text>

    <rect class="key" x="688" y="48" width="228" height="64"/>
    <text class="txt txt14" text-anchor="middle" x="802" y="72">
      <tspan x="802" y="72">step_mode = {1,2,3,4}</tspan>
      <tspan x="802" y="93">2bit 编码, GEMM 内固定</tspan>
    </text>

    <rect class="box" x="515" y="60" width="118" height="96"/>
    <text class="txt txt12" text-anchor="middle" x="574" y="84">
      <tspan x="574" y="84">A0 Q6log码</tspan>
      <tspan x="574" y="105">sign + |qa|</tspan>
      <tspan x="574" y="126">1块/周期</tspan>
      <tspan x="574" y="147">scale_a0 另路送入</tspan>
    </text>

    <rect class="box" x="665" y="60" width="118" height="96"/>
    <text class="txt txt12" text-anchor="middle" x="724" y="84">
      <tspan x="724" y="84">A1 Q6log码</tspan>
      <tspan x="724" y="105">sign + |qa|</tspan>
      <tspan x="724" y="126">1块/周期</tspan>
      <tspan x="724" y="147">scale_a1 另路送入</tspan>
    </text>

    <rect class="box" x="849" y="60" width="118" height="96"/>
    <text class="txt txt12" text-anchor="middle" x="908" y="84">
      <tspan x="908" y="84">W0 Q6码</tspan>
      <tspan x="908" y="105">q_w in [-31,31]</tspan>
      <tspan x="908" y="126">1块/周期</tspan>
      <tspan x="908" y="147">scale_w0 另路送入</tspan>
    </text>

    <rect class="box" x="999" y="60" width="118" height="96"/>
    <text class="txt txt12" text-anchor="middle" x="1058" y="84">
      <tspan x="1058" y="84">W1 Q6码</tspan>
      <tspan x="1058" y="105">q_w in [-31,31]</tspan>
      <tspan x="1058" y="126">1块/周期</tspan>
      <tspan x="1058" y="147">scale_w1 另路送入</tspan>
    </text>

    <line x1="748" y1="112" x2="580" y2="394" stroke="#191919" stroke-width="1" marker-end="url(#edrawArrow_end_4_1_#191919)"/>
    <line x1="784" y1="112" x2="725" y2="394" stroke="#191919" stroke-width="1" marker-end="url(#edrawArrow_end_4_1_#191919)"/>
    <line x1="820" y1="112" x2="914" y2="394" stroke="#191919" stroke-width="1" marker-end="url(#edrawArrow_end_4_1_#191919)"/>
    <line x1="856" y1="112" x2="1064" y2="394" stroke="#191919" stroke-width="1" marker-end="url(#edrawArrow_end_4_1_#191919)"/>

    <rect class="lane" x="523.838" y="250" width="112" height="592"/>
    <rect class="lane" x="668.622" y="250" width="112" height="592"/>
    <rect class="lane" x="857.598" y="250" width="112" height="592"/>
    <rect class="lane" x="1008.172" y="250" width="112" height="592"/>

    <text class="red txt16" x="545" y="276">0,0</text>
    <text class="red txt16" x="690" y="276">1,0</text>
    <text class="red txt16" x="879" y="276">0,1</text>
    <text class="red txt16" x="1029" y="276">1,1</text>

    <text class="txt txt12" text-anchor="middle" x="580" y="298">A0 × W0</text>
    <text class="txt txt12" text-anchor="middle" x="725" y="298">A1 × W0</text>
    <text class="txt txt12" text-anchor="middle" x="914" y="298">A0 × W1</text>
    <text class="txt txt12" text-anchor="middle" x="1064" y="298">A1 × W1</text>

    <rect class="box" x="529" y="310" width="102" height="36"/>
    <text class="txt txt10" text-anchor="middle" x="580" y="324">
      <tspan x="580" y="324">符号 / 幅值</tspan>
      <tspan x="580" y="338">拆分</tspan>
    </text>

    <rect class="box" x="674" y="310" width="102" height="36"/>
    <text class="txt txt10" text-anchor="middle" x="725" y="324">
      <tspan x="725" y="324">符号 / 幅值</tspan>
      <tspan x="725" y="338">拆分</tspan>
    </text>

    <rect class="box" x="863" y="310" width="102" height="36"/>
    <text class="txt txt10" text-anchor="middle" x="914" y="324">
      <tspan x="914" y="324">符号 / 幅值</tspan>
      <tspan x="914" y="338">拆分</tspan>
    </text>

    <rect class="box" x="1013" y="310" width="102" height="36"/>
    <text class="txt txt10" text-anchor="middle" x="1064" y="324">
      <tspan x="1064" y="324">符号 / 幅值</tspan>
      <tspan x="1064" y="338">拆分</tspan>
    </text>

    <rect class="box" x="529" y="354" width="102" height="36"/>
    <text class="txt txt10" text-anchor="middle" x="580" y="376">d = 31 - |qa|</text>

    <rect class="box" x="674" y="354" width="102" height="36"/>
    <text class="txt txt10" text-anchor="middle" x="725" y="376">d = 31 - |qa|</text>

    <rect class="box" x="863" y="354" width="102" height="36"/>
    <text class="txt txt10" text-anchor="middle" x="914" y="376">d = 31 - |qa|</text>

    <rect class="box" x="1013" y="354" width="102" height="36"/>
    <text class="txt txt10" text-anchor="middle" x="1064" y="376">d = 31 - |qa|</text>

    <rect class="box" x="529" y="398" width="102" height="56"/>
    <text class="txt txt10" text-anchor="middle" x="580" y="410">
      <tspan x="580" y="410">4模式专用分解</tspan>
      <tspan x="580" y="423">1/2/4 位切片</tspan>
      <tspan x="580" y="436">3 -&gt; 32项LUT</tspan>
      <tspan x="580" y="449">shift / frac_sel</tspan>
    </text>

    <rect class="box" x="674" y="398" width="102" height="56"/>
    <text class="txt txt10" text-anchor="middle" x="725" y="410">
      <tspan x="725" y="410">4模式专用分解</tspan>
      <tspan x="725" y="423">1/2/4 位切片</tspan>
      <tspan x="725" y="436">3 -&gt; 32项LUT</tspan>
      <tspan x="725" y="449">shift / frac_sel</tspan>
    </text>

    <rect class="box" x="863" y="398" width="102" height="56"/>
    <text class="txt txt10" text-anchor="middle" x="914" y="410">
      <tspan x="914" y="410">4模式专用分解</tspan>
      <tspan x="914" y="423">1/2/4 位切片</tspan>
      <tspan x="914" y="436">3 -&gt; 32项LUT</tspan>
      <tspan x="914" y="449">shift / frac_sel</tspan>
    </text>

    <rect class="box" x="1013" y="398" width="102" height="56"/>
    <text class="txt txt10" text-anchor="middle" x="1064" y="410">
      <tspan x="1064" y="410">4模式专用分解</tspan>
      <tspan x="1064" y="423">1/2/4 位切片</tspan>
      <tspan x="1064" y="436">3 -&gt; 32项LUT</tspan>
      <tspan x="1064" y="449">shift / frac_sel</tspan>
    </text>

    <rect class="box" x="529" y="462" width="102" height="36"/>
    <text class="txt txt10" text-anchor="middle" x="580" y="476">
      <tspan x="580" y="476">|q_w|, frac_sel</tspan>
      <tspan x="580" y="490">-&gt; 192项乘积表</tspan>
    </text>

    <rect class="box" x="674" y="462" width="102" height="36"/>
    <text class="txt txt10" text-anchor="middle" x="725" y="476">
      <tspan x="725" y="476">|q_w|, frac_sel</tspan>
      <tspan x="725" y="490">-&gt; 192项乘积表</tspan>
    </text>

    <rect class="box" x="863" y="462" width="102" height="36"/>
    <text class="txt txt10" text-anchor="middle" x="914" y="476">
      <tspan x="914" y="476">|q_w|, frac_sel</tspan>
      <tspan x="914" y="490">-&gt; 192项乘积表</tspan>
    </text>

    <rect class="box" x="1013" y="462" width="102" height="36"/>
    <text class="txt txt10" text-anchor="middle" x="1064" y="476">
      <tspan x="1064" y="476">|q_w|, frac_sel</tspan>
      <tspan x="1064" y="490">-&gt; 192项乘积表</tspan>
    </text>

    <rect class="box" x="529" y="506" width="102" height="36"/>
    <text class="txt txt10" text-anchor="middle" x="580" y="528">符号折叠 / 补码</text>

    <rect class="box" x="674" y="506" width="102" height="36"/>
    <text class="txt txt10" text-anchor="middle" x="725" y="528">符号折叠 / 补码</text>

    <rect class="box" x="863" y="506" width="102" height="36"/>
    <text class="txt txt10" text-anchor="middle" x="914" y="528">符号折叠 / 补码</text>

    <rect class="box" x="1013" y="506" width="102" height="36"/>
    <text class="txt txt10" text-anchor="middle" x="1064" y="528">符号折叠 / 补码</text>

    <rect class="box" x="529" y="550" width="102" height="36"/>
    <text class="txt txt10" text-anchor="middle" x="580" y="572">&gt;&gt; shift</text>

    <rect class="box" x="674" y="550" width="102" height="36"/>
    <text class="txt txt10" text-anchor="middle" x="725" y="572">&gt;&gt; shift</text>

    <rect class="box" x="863" y="550" width="102" height="36"/>
    <text class="txt txt10" text-anchor="middle" x="914" y="572">&gt;&gt; shift</text>

    <rect class="box" x="1013" y="550" width="102" height="36"/>
    <text class="txt txt10" text-anchor="middle" x="1064" y="572">&gt;&gt; shift</text>

    <rect class="box" x="529" y="594" width="102" height="48"/>
    <text class="txt txt10" text-anchor="middle" x="580" y="611">
      <tspan x="580" y="611">INT RADD16</tspan>
      <tspan x="580" y="627">块内求和</tspan>
    </text>

    <rect class="box" x="674" y="594" width="102" height="48"/>
    <text class="txt txt10" text-anchor="middle" x="725" y="611">
      <tspan x="725" y="611">INT RADD16</tspan>
      <tspan x="725" y="627">块内求和</tspan>
    </text>

    <rect class="box" x="863" y="594" width="102" height="48"/>
    <text class="txt txt10" text-anchor="middle" x="914" y="611">
      <tspan x="914" y="611">INT RADD16</tspan>
      <tspan x="914" y="627">块内求和</tspan>
    </text>

    <rect class="box" x="1013" y="594" width="102" height="48"/>
    <text class="txt txt10" text-anchor="middle" x="1064" y="611">
      <tspan x="1064" y="611">INT RADD16</tspan>
      <tspan x="1064" y="627">块内求和</tspan>
    </text>

    <rect class="box" x="529" y="692" width="102" height="36"/>
    <text class="txt txt10" text-anchor="middle" x="580" y="714">scale_ij reg</text>

    <rect class="box" x="674" y="692" width="102" height="36"/>
    <text class="txt txt10" text-anchor="middle" x="725" y="714">scale_ij reg</text>

    <rect class="box" x="863" y="692" width="102" height="36"/>
    <text class="txt txt10" text-anchor="middle" x="914" y="714">scale_ij reg</text>

    <rect class="box" x="1013" y="692" width="102" height="36"/>
    <text class="txt txt10" text-anchor="middle" x="1064" y="714">scale_ij reg</text>

    <rect class="key" x="529" y="736" width="102" height="44"/>
    <text class="txt txt10" text-anchor="middle" x="580" y="753">
      <tspan x="580" y="753">psum_int ×</tspan>
      <tspan x="580" y="769">scale_ij</tspan>
    </text>

    <rect class="key" x="674" y="736" width="102" height="44"/>
    <text class="txt txt10" text-anchor="middle" x="725" y="753">
      <tspan x="725" y="753">psum_int ×</tspan>
      <tspan x="725" y="769">scale_ij</tspan>
    </text>

    <rect class="key" x="863" y="736" width="102" height="44"/>
    <text class="txt txt10" text-anchor="middle" x="914" y="753">
      <tspan x="914" y="753">psum_int ×</tspan>
      <tspan x="914" y="769">scale_ij</tspan>
    </text>

    <rect class="key" x="1013" y="736" width="102" height="44"/>
    <text class="txt txt10" text-anchor="middle" x="1064" y="753">
      <tspan x="1064" y="753">psum_int ×</tspan>
      <tspan x="1064" y="769">scale_ij</tspan>
    </text>

    <rect class="box" x="544" y="792" width="72" height="56"/>
    <text class="txt txt10" text-anchor="middle" x="580" y="811">
      <tspan x="580" y="811">psum</tspan>
      <tspan x="580" y="827">0,0</tspan>
    </text>

    <rect class="box" x="689" y="792" width="72" height="56"/>
    <text class="txt txt10" text-anchor="middle" x="725" y="811">
      <tspan x="725" y="811">psum</tspan>
      <tspan x="725" y="827">1,0</tspan>
    </text>

    <rect class="box" x="878" y="792" width="72" height="56"/>
    <text class="txt txt10" text-anchor="middle" x="914" y="811">
      <tspan x="914" y="811">psum</tspan>
      <tspan x="914" y="827">0,1</tspan>
    </text>

    <rect class="box" x="1028" y="792" width="72" height="56"/>
    <text class="txt txt10" text-anchor="middle" x="1064" y="811">
      <tspan x="1064" y="811">psum</tspan>
      <tspan x="1064" y="827">1,1</tspan>
    </text>

    <line x1="580" y1="346" x2="580" y2="354" stroke="#191919" stroke-width="1" marker-end="url(#edrawArrow_end_4_1_#191919)"/>
    <line x1="725" y1="346" x2="725" y2="354" stroke="#191919" stroke-width="1" marker-end="url(#edrawArrow_end_4_1_#191919)"/>
    <line x1="914" y1="346" x2="914" y2="354" stroke="#191919" stroke-width="1" marker-end="url(#edrawArrow_end_4_1_#191919)"/>
    <line x1="1064" y1="346" x2="1064" y2="354" stroke="#191919" stroke-width="1" marker-end="url(#edrawArrow_end_4_1_#191919)"/>

    <line x1="580" y1="390" x2="580" y2="398" stroke="#191919" stroke-width="1" marker-end="url(#edrawArrow_end_4_1_#191919)"/>
    <line x1="725" y1="390" x2="725" y2="398" stroke="#191919" stroke-width="1" marker-end="url(#edrawArrow_end_4_1_#191919)"/>
    <line x1="914" y1="390" x2="914" y2="398" stroke="#191919" stroke-width="1" marker-end="url(#edrawArrow_end_4_1_#191919)"/>
    <line x1="1064" y1="390" x2="1064" y2="398" stroke="#191919" stroke-width="1" marker-end="url(#edrawArrow_end_4_1_#191919)"/>

    <line x1="580" y1="454" x2="580" y2="462" stroke="#191919" stroke-width="1" marker-end="url(#edrawArrow_end_4_1_#191919)"/>
    <line x1="725" y1="454" x2="725" y2="462" stroke="#191919" stroke-width="1" marker-end="url(#edrawArrow_end_4_1_#191919)"/>
    <line x1="914" y1="454" x2="914" y2="462" stroke="#191919" stroke-width="1" marker-end="url(#edrawArrow_end_4_1_#191919)"/>
    <line x1="1064" y1="454" x2="1064" y2="462" stroke="#191919" stroke-width="1" marker-end="url(#edrawArrow_end_4_1_#191919)"/>

    <line x1="580" y1="498" x2="580" y2="506" stroke="#191919" stroke-width="1" marker-end="url(#edrawArrow_end_4_1_#191919)"/>
    <line x1="725" y1="498" x2="725" y2="506" stroke="#191919" stroke-width="1" marker-end="url(#edrawArrow_end_4_1_#191919)"/>
    <line x1="914" y1="498" x2="914" y2="506" stroke="#191919" stroke-width="1" marker-end="url(#edrawArrow_end_4_1_#191919)"/>
    <line x1="1064" y1="498" x2="1064" y2="506" stroke="#191919" stroke-width="1" marker-end="url(#edrawArrow_end_4_1_#191919)"/>

    <line x1="580" y1="542" x2="580" y2="550" stroke="#191919" stroke-width="1" marker-end="url(#edrawArrow_end_4_1_#191919)"/>
    <line x1="725" y1="542" x2="725" y2="550" stroke="#191919" stroke-width="1" marker-end="url(#edrawArrow_end_4_1_#191919)"/>
    <line x1="914" y1="542" x2="914" y2="550" stroke="#191919" stroke-width="1" marker-end="url(#edrawArrow_end_4_1_#191919)"/>
    <line x1="1064" y1="542" x2="1064" y2="550" stroke="#191919" stroke-width="1" marker-end="url(#edrawArrow_end_4_1_#191919)"/>

    <line x1="580" y1="586" x2="580" y2="594" stroke="#191919" stroke-width="1" marker-end="url(#edrawArrow_end_4_1_#191919)"/>
    <line x1="725" y1="586" x2="725" y2="594" stroke="#191919" stroke-width="1" marker-end="url(#edrawArrow_end_4_1_#191919)"/>
    <line x1="914" y1="586" x2="914" y2="594" stroke="#191919" stroke-width="1" marker-end="url(#edrawArrow_end_4_1_#191919)"/>
    <line x1="1064" y1="586" x2="1064" y2="594" stroke="#191919" stroke-width="1" marker-end="url(#edrawArrow_end_4_1_#191919)"/>

    <line x1="580" y1="642" x2="580" y2="692" stroke="#191919" stroke-width="1" marker-end="url(#edrawArrow_end_4_1_#191919)"/>
    <line x1="725" y1="642" x2="725" y2="692" stroke="#191919" stroke-width="1" marker-end="url(#edrawArrow_end_4_1_#191919)"/>
    <line x1="914" y1="642" x2="914" y2="692" stroke="#191919" stroke-width="1" marker-end="url(#edrawArrow_end_4_1_#191919)"/>
    <line x1="1064" y1="642" x2="1064" y2="692" stroke="#191919" stroke-width="1" marker-end="url(#edrawArrow_end_4_1_#191919)"/>

    <line x1="580" y1="728" x2="580" y2="736" stroke="#191919" stroke-width="1" marker-end="url(#edrawArrow_end_4_1_#191919)"/>
    <line x1="725" y1="728" x2="725" y2="736" stroke="#191919" stroke-width="1" marker-end="url(#edrawArrow_end_4_1_#191919)"/>
    <line x1="914" y1="728" x2="914" y2="736" stroke="#191919" stroke-width="1" marker-end="url(#edrawArrow_end_4_1_#191919)"/>
    <line x1="1064" y1="728" x2="1064" y2="736" stroke="#191919" stroke-width="1" marker-end="url(#edrawArrow_end_4_1_#191919)"/>

    <line x1="580" y1="780" x2="580" y2="792" stroke="#191919" stroke-width="1" marker-end="url(#edrawArrow_end_4_1_#191919)"/>
    <line x1="725" y1="780" x2="725" y2="792" stroke="#191919" stroke-width="1" marker-end="url(#edrawArrow_end_4_1_#191919)"/>
    <line x1="914" y1="780" x2="914" y2="792" stroke="#191919" stroke-width="1" marker-end="url(#edrawArrow_end_4_1_#191919)"/>
    <line x1="1064" y1="780" x2="1064" y2="792" stroke="#191919" stroke-width="1" marker-end="url(#edrawArrow_end_4_1_#191919)"/>

    <line x1="455" y1="710" x2="529" y2="710" stroke="#191919" stroke-width="1" marker-end="url(#edrawArrow_end_4_1_#191919)"/>
    <rect x="458" y="700" width="48" height="20" fill="#ffffff"/>
    <text class="txt txt12" x="463" y="715">scale0</text>

    <line x1="600" y1="710" x2="674" y2="710" stroke="#191919" stroke-width="1" marker-end="url(#edrawArrow_end_4_1_#191919)"/>
    <rect x="603" y="700" width="48" height="20" fill="#ffffff"/>
    <text class="txt txt12" x="608" y="715">scale2</text>

    <line x1="789" y1="710" x2="863" y2="710" stroke="#191919" stroke-width="1" marker-end="url(#edrawArrow_end_4_1_#191919)"/>
    <rect x="792" y="700" width="48" height="20" fill="#ffffff"/>
    <text class="txt txt12" x="797" y="715">scale1</text>

    <line x1="939" y1="710" x2="1013" y2="710" stroke="#191919" stroke-width="1" marker-end="url(#edrawArrow_end_4_1_#191919)"/>
    <rect x="942" y="700" width="48" height="20" fill="#ffffff"/>
    <text class="txt txt12" x="947" y="715">scale3</text>

    <rect x="255" y="130" width="212" height="94" fill="#ffff00"/>
    <text class="red txt14" x="270" y="156">边界与范围</text>
    <text class="red txt12" x="270" y="182">仅考虑 Q6 × Q6 基本胞元</text>
    <text class="red txt12" x="270" y="204">忽略 BF16 扩展预留互连</text>
    <text class="red txt12" x="270" y="226">忽略 F32 / BF16 psum 复用</text>

    <rect x="255" y="246" width="212" height="132" fill="#ffff00"/>
    <text class="red txt14" x="270" y="272">4步长专用分解</text>
    <text class="red txt12" x="270" y="298">step1: shift=d, sel=0</text>
    <text class="red txt12" x="270" y="320">step2: shift=d&gt;&gt;1, sel=d[0]</text>
    <text class="red txt12" x="270" y="342">step4: shift=d&gt;&gt;2, sel=d[1:0]</text>
    <text class="red txt12" x="270" y="364">step3: 32项LUT输出 shift, sel</text>

    <rect x="255" y="398" width="212" height="144" fill="#ffff00"/>
    <text class="red txt14" x="270" y="424">块级 scale 路径</text>
    <text class="red txt12" x="270" y="450">scale0 = scale_a0 * scale_w0</text>
    <text class="red txt12" x="270" y="472">scale2 = scale_a1 * scale_w0</text>
    <text class="red txt12" x="270" y="494">scale1 = scale_a0 * scale_w1</text>
    <text class="red txt12" x="270" y="516">scale3 = scale_a1 * scale_w1</text>
    <text class="red txt12" x="270" y="538">每块进入 psum 前乘一次</text>

    <rect x="255" y="564" width="212" height="164" fill="#ffff00"/>
    <text class="red txt14" x="270" y="590">乘积表实现</text>
    <text class="red txt12" x="270" y="616">frac 只剩 6 个候选值</text>
    <text class="red txt12" x="270" y="638">6 x 32 = 192 项乘积表</text>
    <text class="red txt12" x="270" y="660">推荐 Q5.7 / Q5.8 定点</text>
    <text class="red txt12" x="270" y="682">step_mode 未用项可门控</text>
    <text class="red txt12" x="270" y="704">1/2/4 模式路径最短</text>

    <rect class="frame" x="492" y="948" width="638" height="282"/>
    <text class="red txt16" x="706" y="978">相对 F8×F8 的 PPA 方向</text>
    <text class="graytxt txt11" text-anchor="middle" x="811" y="1000">只比较 lane 前端，不比较 BF16/F32 共享累加网络，且假设 step 仅取 1/2/3/4</text>

    <rect class="box" x="515" y="1012" width="188" height="186"/>
    <text class="red txt16" text-anchor="middle" x="609" y="1040">面积</text>
    <text class="txt txt12" text-anchor="middle" x="609" y="1065">
      <tspan x="609" y="1065">去掉 Booth / CSA</tspan>
      <tspan x="609" y="1085">/ TADD4 主树</tspan>
      <tspan x="609" y="1105">去掉通用小乘法器</tspan>
      <tspan x="609" y="1125">保留 32项LUT</tspan>
      <tspan x="609" y="1145">+ 192项乘积表</tspan>
      <tspan x="609" y="1165">+ 移位 / 规约</tspan>
      <tspan class="red txt14" x="609" y="1190">lane前端面积 下降</tspan>
    </text>

    <rect class="box" x="716" y="1012" width="188" height="186"/>
    <text class="red txt16" text-anchor="middle" x="810" y="1040">功耗</text>
    <text class="txt txt12" text-anchor="middle" x="810" y="1065">
      <tspan x="810" y="1065">浮点部分积树翻转</tspan>
      <tspan x="810" y="1085">基本消失</tspan>
      <tspan x="810" y="1105">乘法器改成</tspan>
      <tspan x="810" y="1125">小查表 + 窄整数</tspan>
      <tspan x="810" y="1145">BF16乘法每块</tspan>
      <tspan x="810" y="1165">只触发一次</tspan>
      <tspan class="red txt14" x="810" y="1190">动态功耗 明显下降</tspan>
    </text>

    <rect class="box" x="917" y="1012" width="188" height="186"/>
    <text class="red txt16" text-anchor="middle" x="1011" y="1040">时序</text>
    <text class="txt txt12" text-anchor="middle" x="1011" y="1065">
      <tspan x="1011" y="1065">关键路径 =</tspan>
      <tspan x="1011" y="1085">step解码 -&gt; 乘积表</tspan>
      <tspan x="1011" y="1105">-&gt; shift -&gt; RADD16</tspan>
      <tspan x="1011" y="1125">1/2/4 模式</tspan>
      <tspan x="1011" y="1145">短于 step=3 路径</tspan>
      <tspan x="1011" y="1165">整体仍易于打拍</tspan>
      <tspan class="red txt14" x="1011" y="1190">频率更容易收敛</tspan>
    </text>

    <rect x="517" y="1208" width="586" height="56" fill="#d7d7d7" stroke="#191919" stroke-dasharray="11,5"/>
    <text class="graytxt txt14" text-anchor="middle" x="810" y="1228">
      <tspan x="810" y="1228">结论：当 step 限定为 1/2/3/4 时，最优胞元不是“通用 ROM + 小乘法器”，</tspan>
      <tspan x="810" y="1249">而是“4模式专用分解 + 192项乘积查表 + 符号折叠 + 移位 + INT累加 + 块末 BF16 scale-late”。</tspan>
    </text>
  </g>
</svg>